<?xml version="1.0" encoding="UTF-8"?>
<svg id="Layer_2" data-name="Layer 2" xmlns="http://www.w3.org/2000/svg" viewBox="0 0 1420.61 518.64">
  <defs>
    <style>
      .cls-1 {
        fill: #f7f8f8;
        stroke-width: 0px;
      }
    </style>
  </defs>
  <g id="Layer_1-2" data-name="Layer 1">
    <g>
      <path class="cls-1" d="M276.81,254.77c.53,2.09.71,4.32.46,6.6-1.13,10.43-10.53,18.02-21.01,16.89-11.31-1.22-19.24-12.16-16.43-23.56,2.14-8.73,10.46-14.89,19.42-14.43,1.84.11,3.59.44,5.24,1.01.46.14.9.32,1.33.51,5.06,2.16,8.89,6.41,10.57,11.58.16.44.3.92.41,1.4Z"/>
      <path class="cls-1" d="M353.18,265.33c.06-.76.06-1.5.12-2.26,0-.07,0-.19.01-.28.03-.74.04-1.48.04-2.2.03-1.6,0-3.15-.04-4.71-.04-.77-.07-1.54-.13-2.34-.08-1.47-.21-2.95-.38-4.41-.25-2.45-.6-4.86-1.04-7.24-.27-1.47-.58-2.93-.92-4.39-.16-.74-.36-1.46-.56-2.21-.78-2.98-1.69-5.91-2.77-8.74-.25-.73-.53-1.44-.8-2.17-.28-.69-.55-1.4-.85-2.11-.33-.67-.63-1.38-.93-2.07-.63-1.38-1.3-2.77-2-4.12-1.03-2.02-2.15-4.02-3.33-5.97-.4-.66-.8-1.31-1.2-1.92-.4-.66-.82-1.29-1.25-1.93-.42-.64-.85-1.25-1.28-1.86-.45-.64-.87-1.25-1.35-1.85-2.49-3.37-5.2-6.54-8.11-9.53-.43-.45-.88-.88-1.33-1.32-.59-.59-1.19-1.18-1.81-1.75-.39-.38-.78-.73-1.2-1.11-.39-.35-.79-.71-1.2-1.09-.46-.39-.92-.77-1.37-1.16-.62-.55-1.25-1.07-1.9-1.55-.23-.19-.42-.36-.61-.5-3.04-2.38-6.22-4.59-9.57-6.6-.08-.08-.21-.14-.32-.18-.99-.6-1.97-1.19-3.01-1.73-1.01-.58-2.03-1.11-3.07-1.62-.07-.03-.15-.07-.22-.1-.98-.5-1.93-.98-2.94-1.44-1.01-.44-2.01-.9-3.05-1.31-.06-.05-.13-.06-.2-.07-1.1-.47-2.18-.9-3.3-1.3-1.06-.37-2.15-.78-3.26-1.13l-.09-.03c-1.15-.39-2.29-.75-3.45-1.04-1.14-.34-2.32-.66-3.49-.96-53.13-13.06-106.82,21.32-116.38,76.17-8.05,46.27,19.74,92.19,64.47,106.53,52.99,17.01,108.38-14.59,121.46-67.7.4-1.59.73-3.22,1.06-4.8.15-.79.31-1.58.42-2.4.15-.77.26-1.57.39-2.36.32-2.39.58-4.79.73-7.14ZM312.64,253.48c-.94.92-2,1.59-3.08,2.07-2.71,1.19-5.28,3.05-7.3,5.46-2.01,2.37-3.44,5.22-4.15,8.09-.69,2.88-.77,6.06-.09,9.1.66,3.06,2.08,5.89,3.93,8.2,1.03,1.28,1.81,2.91,2.18,4.68.34,1.81.22,3.72-.36,5.45-.3.86-.64,1.68-1.11,2.42-.47.7-.99,1.33-1.58,1.9-1.2,1.14-2.75,2.14-4.5,2.62-1.62.48-3.39.54-5.04.23-1.65-.31-3.13-1.02-4.34-1.9-2.36-1.76-5.3-3.03-8.37-3.61-3.06-.55-6.24-.33-9.09.49-2.84.8-5.65,2.37-7.93,4.45-2.32,2.1-4.07,4.76-5.16,7.51-.53,1.39-1.42,2.8-2.64,3.91-1.22,1.16-2.76,2.04-4.37,2.52-1.76.53-3.57.52-5.2.21-.79-.18-1.56-.44-2.37-.81-.77-.34-1.51-.81-2.24-1.42-1.38-1.14-2.51-2.7-3.19-4.39-.65-1.69-.85-3.48-.66-5.1.35-2.94-.01-6.12-1.08-9.05-1.04-2.92-2.82-5.6-4.96-7.62-2.13-2.07-4.85-3.74-7.81-4.67-3-.94-6.18-1.16-9.09-.69-1.18.19-2.43.16-3.72-.08s-2.56-.76-3.7-1.47c-1.15-.73-2.11-1.7-2.9-2.73-.76-1.05-1.3-2.22-1.66-3.33-.31-1.15-.47-2.4-.38-3.72.11-1.31.42-2.63.98-3.83.61-1.26,1.41-2.36,2.36-3.25.93-.87,2.02-1.56,3.08-2.07,2.73-1.16,5.3-3.04,7.29-5.42,2.01-2.4,3.44-5.26,4.15-8.11.71-2.87.77-6.06.09-9.1-.66-3.06-2.08-5.91-3.93-8.23-.74-.91-1.38-2.02-1.79-3.26-.44-1.24-.63-2.59-.58-3.95.07-1.36.38-2.66.91-3.87.56-1.2,1.25-2.24,2.06-3.11.85-.84,1.86-1.6,3.03-2.17,1.17-.58,2.48-.99,3.81-1.09,1.36-.12,2.71.04,3.98.42,1.25.35,2.38.95,3.33,1.65,2.36,1.76,5.29,3.05,8.37,3.61,3.06.53,6.24.33,9.09-.49s5.65-2.35,7.93-4.45c2.33-2.12,4.1-4.76,5.16-7.51.43-1.1,1.06-2.22,1.94-3.19.85-.98,1.92-1.83,3.11-2.46,1.2-.63,2.52-1.01,3.82-1.13s2.56-.05,3.7.22c1.14.29,2.3.82,3.41,1.53,1.09.73,2.07,1.67,2.85,2.79.76,1.1,1.31,2.36,1.6,3.6.32,1.27.38,2.55.24,3.74-.05.57-.09,1.17-.12,1.77-.04,1.99.21,3.99.8,5.97.13.43.25.87.41,1.28,1.04,2.92,2.82,5.6,4.95,7.65,2.14,2.05,4.86,3.69,7.82,4.65,2.98.93,6.18,1.13,9.09.69,1.18-.17,2.46-.18,3.72.08,1.29.27,2.57.74,3.7,1.47,1.16.71,2.14,1.68,2.9,2.73.77,1.03,1.31,2.19,1.66,3.33.31,1.13.47,2.38.38,3.72-.06.76-.2,1.48-.39,2.22-.14.56-.36,1.09-.59,1.64-.6,1.22-1.38,2.3-2.35,3.19v.02Z"/>
      <line class="cls-1" x1="276.82" y1="254.77" x2="258.31" y2="259.32"/>
      <line class="cls-1" x1="264.5" y1="241.28" x2="258.31" y2="259.32"/>
      <g id="SvgjsG1356">
        <path class="cls-1" d="M516.65,292.07c-.72,5.56-1.59,11.08-2.65,16.58l-3.59.66-3.52.51-3.18.34-2.74.17-2.29.04-1.91-.06-2.04-.15-.51-.11-1.63-.57-1.55-.49-1.49-.4-1.38-.32-1.3-.25-1.21-.17-1.13-.11-1-.02-.93.02-.81.08-.72.13-.62.19-.51.23-.4.28-.28.3-.19.34-.04.19-.83,3.44-1.32,5.14-1.44,5.12-1.02,3.38-.06.17v.38l.08.42.21.42.32.47.45.47.55.49.66.47.79.49.89.49,1.02.47,1.13.47,1.25.45,1.36.4,1.46.4,1.59.36,1.72.32.49.17,1.85.89,1.66.91,1.97,1.21,2.27,1.53,2.59,1.87,2.78,2.21,2.76,2.38c-1.85,5.29-3.86,10.51-6.05,15.67l-3.63-.08-3.57-.23-3.16-.34-2.72-.42-2.25-.42-1.85-.45-1.97-.57-.49-.21-1.46-.89-1.42-.81-1.36-.7-1.3-.62-1.21-.51-1.15-.4-1.08-.34-.98-.25-.91-.15-.81-.11h-.74l-.64.04-.53.13-.45.19-.36.23-.25.3-.09.17-1.51,3.18-2.36,4.76-2.48,4.69-1.7,3.1-.08.17-.09.36v.42l.11.47.23.53.32.53.45.59.55.62.66.64.79.66.89.66,1,.7,1.13.68,1.25.7,1.36.68,1.49.68,1.59.68.47.28,1.59,1.25,1.44,1.25,1.68,1.57,1.93,1.97,2.12,2.36,2.27,2.76,2.19,2.89c-2.89,4.8-5.94,9.47-9.15,14.05l-3.55-.83-3.44-.98-3.01-1-2.59-.96-2.12-.89-1.7-.83-1.8-.96-.45-.32-1.25-1.19-1.21-1.08-1.19-.96-1.13-.87-1.1-.74-1.02-.66-.98-.53-.91-.45-.85-.36-.79-.25-.72-.17-.64-.06h-.55l-.47.08-.4.15-.3.25-.13.13-2.14,2.82-3.29,4.16-3.4,4.08-2.31,2.68-.11.13-.17.36-.08.4v.49l.13.55.19.59.32.68.4.7.51.76.64.81.72.85.85.87.96.91,1.08.93,1.19.96,1.3.98,1.44,1,.38.36,1.32,1.55,1.15,1.53,1.3,1.89,1.49,2.31,1.59,2.76,1.63,3.16,1.55,3.29c-3.82,4.08-7.79,8.03-11.89,11.85l-3.29-1.55-3.14-1.68-2.76-1.59-2.31-1.49-1.89-1.32-1.51-1.15-1.57-1.32-.36-.38-.98-1.44-.98-1.3-.96-1.21-.91-1.06-.91-.98-.87-.85-.85-.72-.81-.64-.76-.51-.7-.42-.66-.3-.62-.21-.53-.13h-.49l-.42.06-.34.17-.15.13-2.68,2.29-4.1,3.4-4.16,3.27-2.82,2.14-.15.11-.23.3-.17.4-.09.47v.57l.06.64.17.7.25.79.34.85.45.91.55.98.64,1.04.74,1.08.85,1.15.98,1.19,1.06,1.23,1.19,1.25.32.42.96,1.8.81,1.72.89,2.12.96,2.59.98,3.04.96,3.42.83,3.55c-4.59,3.21-9.3,6.24-14.08,9.13l-2.91-2.23-2.74-2.27-2.36-2.14-1.95-1.91-1.57-1.7-1.25-1.42-1.25-1.63-.25-.45-.68-1.61-.68-1.46-.68-1.38-.68-1.23-.7-1.15-.68-1-.66-.89-.66-.79-.64-.68-.62-.55-.57-.42-.55-.34-.51-.21-.47-.13h-.42l-.38.08-.17.08-3.08,1.7-4.71,2.46-4.76,2.34-3.21,1.51-.17.08-.3.23-.23.36-.19.45-.13.53-.04.64v.74l.08.81.17.91.23,1,.34,1.06.4,1.15.51,1.21.59,1.3.7,1.36.79,1.42.91,1.49.21.49.55,1.97.42,1.85.45,2.25.38,2.72.34,3.18.21,3.55.08,3.65c-5.16,2.17-10.38,4.16-15.69,5.99l-2.36-2.78-2.21-2.78-1.87-2.59-1.51-2.29-1.19-1.97-.91-1.66-.89-1.85-.17-.51-.32-1.7-.36-1.59-.38-1.49-.4-1.36-.45-1.25-.45-1.13-.47-1.02-.49-.89-.49-.79-.47-.66-.49-.55-.47-.45-.45-.32-.45-.21-.4-.11-.38.02-.19.04-3.38,1.02-5.12,1.42-5.16,1.3-3.44.81-.17.04-.34.19-.32.28-.28.4-.23.51-.17.62-.15.72-.08.81-.04.93.04,1,.11,1.13.15,1.21.25,1.3.32,1.38.38,1.49.49,1.55.57,1.63.11.53.15,2.04.04,1.89-.06,2.31-.17,2.74-.34,3.16-.53,3.52-.68,3.59c-5.5,1.04-11.02,1.91-16.58,2.59l-1.74-3.21-1.57-3.18-1.3-2.93-1-2.55-.76-2.19-.53-1.8-.49-2-.06-.53.04-1.72-.02-1.63-.06-1.53-.13-1.42-.17-1.3-.21-1.21-.23-1.08-.28-1-.32-.85-.34-.76-.34-.64-.38-.53-.36-.4-.38-.3-.38-.19-.38-.06-.19.02-3.52.28-5.29.34-5.31.21-3.55.06h-.17l-.38.11-.36.21-.34.34-.34.45-.32.57-.28.66-.25.79-.23.89-.17,1-.15,1.13-.09,1.21-.02,1.32.02,1.42.09,1.53.15,1.63.21,1.72v.53l-.3,2.02-.36,1.87-.53,2.23-.74,2.65-.98,3.04-1.25,3.33-1.4,3.35c-5.6-.13-11.19-.42-16.77-.91l-1.04-3.48-.87-3.46-.66-3.12-.45-2.72-.28-2.27-.17-1.89-.06-2.06.06-.51.4-1.7.32-1.59.25-1.51.17-1.42.11-1.32.04-1.21v-1.13l-.09-1.02-.13-.91-.17-.81-.19-.68-.25-.59-.3-.49-.3-.36-.34-.25-.36-.15-.19-.04-3.5-.45-5.24-.76-5.22-.91-3.48-.66-.17-.04-.4.02-.38.15-.42.25-.42.36-.4.49-.42.59-.42.72-.4.83-.38.93-.36,1.06-.34,1.17-.3,1.3-.28,1.38-.23,1.51-.19,1.63-.15,1.72-.13.53-.7,1.91-.72,1.74-1,2.08-1.27,2.44-1.59,2.76-1.91,3.01-2.08,2.97c-5.46-1.27-10.85-2.74-16.2-4.37l-.3-3.63-.13-3.55v-3.18l.13-2.76.19-2.29.23-1.87.38-2.02.15-.51.74-1.57.66-1.49.55-1.42.47-1.36.38-1.25.3-1.19.21-1.1.15-1,.06-.91v-.83l-.06-.72-.13-.64-.17-.53-.23-.42-.28-.32-.32-.21-.17-.06-3.33-1.17-4.97-1.87-4.93-1.97-3.27-1.36-.17-.06-.38-.06-.42.04-.45.17-.49.28-.51.38-.53.49-.55.62-.57.72-.57.85-.57.96-.57,1.08-.57,1.19-.55,1.32-.55,1.42-.53,1.55-.49,1.66-.23.49-1.08,1.72-1.08,1.57-1.38,1.83-1.76,2.12-2.14,2.36-2.48,2.55-2.65,2.48c-5.07-2.38-10.04-4.93-14.95-7.64l.47-3.61.62-3.5.66-3.12.7-2.68.66-2.19.64-1.8.76-1.89.28-.47,1.04-1.36.96-1.34.85-1.27.72-1.21.64-1.17.53-1.1.45-1.02.34-.96.28-.89.17-.81.08-.72.02-.64-.06-.55-.15-.47-.19-.36-.28-.28-.15-.11-3.01-1.85-4.48-2.84-4.42-2.95-2.91-2.02-.15-.11-.36-.13-.42-.04-.47.06-.55.17-.57.28-.62.36-.68.49-.7.59-.74.7-.76.83-.79.93-.79,1.04-.83,1.17-.83,1.27-.83,1.4-.85,1.53-.32.42-1.4,1.46-1.4,1.3-1.74,1.51-2.14,1.7-2.59,1.87-2.97,1.97-3.12,1.89c-4.44-3.4-8.79-6.92-13.01-10.59l1.21-3.42,1.32-3.31,1.32-2.91,1.21-2.46,1.13-2.02.98-1.61,1.17-1.7.34-.4,1.32-1.13,1.21-1.1,1.08-1.06.98-1.04.85-1,.76-.98.64-.91.55-.85.42-.81.34-.76.23-.68.15-.64.06-.55-.04-.49-.13-.4-.19-.32-.13-.13-2.59-2.42-3.78-3.74-3.69-3.8-2.42-2.57-.13-.13-.34-.21-.4-.13-.49-.04-.55.06-.62.15-.7.23-.74.32-.81.45-.87.53-.91.64-.98.76-1,.85-1.04.98-1.08,1.08-1.1,1.19-1.13,1.32-.4.34-1.7,1.15-1.61.98-2.02,1.13-2.48,1.21-2.91,1.3-3.31,1.3-3.44,1.21c-3.65-4.25-7.15-8.6-10.53-13.06l1.89-3.12,1.97-2.95,1.89-2.59,1.72-2.14,1.51-1.74,1.3-1.38,1.49-1.4.42-.32,1.51-.83,1.42-.83,1.27-.83,1.17-.81,1.06-.81.93-.79.81-.76.72-.72.59-.7.49-.68.36-.62.28-.57.17-.53.06-.49-.02-.42-.15-.36-.08-.15-2.02-2.91-2.93-4.44-2.84-4.48-1.8-3.04-.11-.15-.28-.28-.38-.19-.47-.15-.55-.06-.64.02-.72.09-.81.17-.89.25-.96.34-1.02.45-1.1.53-1.17.64-1.21.72-1.27.83-1.34.96-1.38,1.04-.47.25-1.89.76-1.8.64-2.19.66-2.68.68-3.12.66-3.5.59-3.63.45c-2.68-4.9-5.22-9.89-7.58-14.97l2.51-2.63,2.55-2.48,2.38-2.14,2.12-1.74,1.83-1.38,1.57-1.08,1.74-1.08.47-.21,1.68-.51,1.55-.51,1.42-.53,1.32-.55,1.19-.57,1.08-.57.96-.57.85-.57.72-.55.62-.55.49-.53.4-.51.28-.49.15-.45.06-.42-.06-.38-.06-.17-1.36-3.27-1.95-4.93-1.83-4.99-1.17-3.33-.06-.19-.21-.32-.32-.28-.42-.21-.53-.19-.64-.13-.72-.06h-.83l-.91.06-1,.15-1.1.21-1.19.3-1.27.36-1.34.47-1.42.55-1.51.64-1.57.74-.49.17-2.02.34-1.89.23-2.29.19-2.74.11h-3.18l-3.57-.15-3.63-.3c-1.61-5.37-3.06-10.76-4.31-16.22l2.99-2.08,3.01-1.89,2.76-1.59,2.44-1.27,2.08-.98,1.76-.72,1.91-.7.53-.11,1.72-.13,1.61-.19,1.53-.23,1.38-.28,1.3-.3,1.17-.34,1.06-.36.96-.38.83-.38.7-.42.62-.4.47-.42.38-.42.25-.4.13-.4.04-.38-.04-.19-.66-3.46-.87-5.24-.76-5.24-.42-3.5-.04-.19-.15-.36-.25-.34-.36-.32-.47-.28-.59-.25-.7-.21-.81-.17-.91-.13-1.02-.08h-1.1l-1.23.02-1.32.11-1.42.17-1.51.25-1.59.32-1.68.4-.53.04-2.04-.09-1.91-.15-2.27-.3-2.72-.47-3.12-.66-3.44-.89-3.48-1.06c-.47-5.56-.74-11.17-.85-16.75l3.35-1.4,3.35-1.23,3.04-.98,2.63-.74,2.25-.51,1.87-.36,2.02-.28h.53l1.72.23,1.63.15,1.51.08,1.44.04,1.32-.04,1.21-.08,1.1-.13,1.02-.17.89-.23.79-.23.66-.3.57-.3.45-.34.34-.34.21-.38.11-.36.02-.19.06-3.52.23-5.31.34-5.29.32-3.52v-.19l-.06-.38-.17-.38-.3-.38-.42-.38-.51-.36-.64-.36-.76-.34-.87-.3-.98-.3-1.08-.25-1.19-.21-1.32-.17-1.42-.13-1.53-.06-1.63-.02-1.72.02-.53-.06-1.97-.49-1.83-.55-2.17-.76-2.57-1-2.91-1.32-3.18-1.57-3.18-1.76c.7-5.56,1.59-11.08,2.65-16.58l3.57-.66,3.52-.51,3.18-.34,2.74-.15,2.29-.04,1.91.04,2.04.15.51.11,1.63.57,1.57.49,1.46.4,1.38.32,1.3.25,1.21.17,1.13.11,1.02.02.91-.02.83-.09.7-.13.62-.19.51-.23.4-.28.3-.3.17-.34.06-.19.81-3.44,1.32-5.14,1.44-5.1,1.04-3.4.04-.17.02-.38-.11-.42-.21-.42-.32-.47-.45-.47-.53-.47-.68-.49-.79-.49-.89-.49-1.02-.47-1.13-.47-1.23-.42-1.38-.42-1.46-.4-1.59-.36-1.7-.32-.51-.17-1.83-.89-1.68-.91-1.95-1.19-2.29-1.53-2.59-1.89-2.78-2.21-2.76-2.38c1.85-5.29,3.86-10.51,6.05-15.67l3.63.11,3.57.23,3.16.34,2.72.4,2.27.42,1.85.45,1.95.57.49.21,1.49.91,1.42.79,1.34.7,1.3.62,1.23.51,1.13.42,1.08.32.98.25.91.17.83.09h.72l.64-.04.55-.13.45-.17.34-.25.25-.3.08-.15,1.51-3.21,2.36-4.76,2.48-4.69,1.7-3.1.09-.17.11-.36-.02-.42-.11-.47-.21-.51-.34-.55-.45-.59-.55-.62-.66-.64-.76-.66-.89-.66-1.02-.68-1.13-.7-1.25-.7-1.36-.68-1.49-.68-1.59-.68-.45-.28-1.61-1.25-1.44-1.23-1.68-1.59-1.91-1.95-2.14-2.38-2.25-2.76-2.21-2.89c2.91-4.8,5.97-9.47,9.17-14.05l3.55.85,3.42.96,3.04,1,2.57.96,2.12.91,1.72.81,1.78.96.45.32,1.25,1.19,1.23,1.08,1.17.96,1.15.87,1.08.74,1.04.66.98.55.91.45.85.34.79.25.7.17.64.09.55-.02.49-.09.38-.15.3-.23.13-.15,2.14-2.82,3.29-4.14,3.4-4.1,2.31-2.65.13-.15.17-.34.06-.42v-.49l-.11-.55-.21-.59-.32-.66-.4-.72-.51-.76-.64-.81-.72-.83-.85-.89-.96-.91-1.08-.93-1.19-.96-1.3-.98-1.42-.98-.4-.36-1.3-1.57-1.15-1.51-1.32-1.91-1.46-2.31-1.59-2.76-1.66-3.16-1.55-3.29c3.84-4.08,7.79-8.03,11.89-11.85l3.29,1.57,3.14,1.66,2.76,1.59,2.31,1.49,1.89,1.32,1.51,1.15,1.57,1.32.36.4.98,1.42.98,1.32.96,1.19.93,1.08.89.96.89.85.83.72.81.64.76.51.7.42.66.32.62.19.55.13h.49l.4-.06.34-.17.15-.13,2.68-2.29,4.1-3.38,4.18-3.29,2.8-2.14.15-.11.23-.3.17-.4.08-.47.02-.55-.09-.64-.17-.72-.25-.79-.34-.85-.45-.91-.53-.98-.66-1.04-.74-1.08-.85-1.15-.98-1.19-1.06-1.21-1.19-1.27-.32-.42-.96-1.8-.81-1.72-.89-2.12-.96-2.59-.98-3.04-.96-3.42-.83-3.55c4.61-3.18,9.3-6.24,14.1-9.11l2.89,2.21,2.74,2.27,2.36,2.14,1.97,1.93,1.57,1.68,1.23,1.44,1.25,1.61.28.45.66,1.61.68,1.49.68,1.36.7,1.25.68,1.13.68,1,.66.91.66.76.64.68.62.55.57.45.55.32.51.23.47.11h.42l.38-.09.17-.08,3.1-1.7,4.69-2.44,4.78-2.36,3.18-1.49.17-.08.3-.25.25-.34.17-.47.13-.53.06-.64-.02-.74-.08-.81-.15-.91-.25-.98-.32-1.08-.42-1.15-.51-1.21-.59-1.3-.7-1.36-.79-1.42-.91-1.49-.19-.49-.57-1.95-.42-1.87-.42-2.25-.4-2.72-.34-3.18-.21-3.55-.08-3.65c5.16-2.14,10.4-4.14,15.69-5.97l2.36,2.76,2.21,2.8,1.87,2.57,1.53,2.29,1.19,1.97.91,1.68.87,1.83.17.51.32,1.7.36,1.59.38,1.49.42,1.36.42,1.25.47,1.13.47,1.02.47.89.49.79.49.68.47.55.47.42.47.32.42.21.42.11.38-.02.17-.04,3.4-1.02,5.1-1.42,5.16-1.3,3.44-.81.17-.04.34-.19.32-.28.28-.4.23-.51.19-.62.13-.7.09-.83.04-.91-.04-1.02-.09-1.13-.17-1.21-.23-1.3-.32-1.38-.4-1.49-.49-1.55-.57-1.63-.11-.53-.15-2.04-.02-1.89.04-2.29.17-2.76.34-3.16.53-3.52.68-3.57c5.5-1.06,11.04-1.91,16.58-2.61l1.74,3.21,1.57,3.18,1.3,2.93,1.02,2.55.74,2.19.55,1.8.49,2,.04.53-.04,1.72.02,1.63.06,1.53.13,1.42.17,1.32.21,1.19.25,1.1.28.98.3.87.34.74.36.64.36.53.38.4.38.3.38.19.36.06.19-.02,3.52-.28,5.31-.34,5.29-.19,3.55-.08h.19l.36-.11.36-.21.36-.34.32-.45.32-.55.3-.68.25-.79.21-.89.17-1,.15-1.1.08-1.23.04-1.32-.02-1.42-.09-1.53-.15-1.61-.23-1.72.02-.53.28-2.04.36-1.85.53-2.25.74-2.65.98-3.01,1.25-3.35,1.42-3.35c5.58.13,11.17.42,16.75.91l1.04,3.5.87,3.44.66,3.12.45,2.72.3,2.27.15,1.91.06,2.04-.04.53-.42,1.68-.32,1.59-.25,1.51-.17,1.42-.11,1.32-.04,1.21.02,1.13.06,1.02.13.91.17.81.21.7.23.57.3.49.32.36.32.28.36.13.19.04,3.5.45,5.24.79,5.24.89,3.46.68.19.02.38-.02.4-.15.4-.25.42-.36.42-.49.4-.59.42-.72.4-.83.38-.93.36-1.06.34-1.17.32-1.27.25-1.4.25-1.51.19-1.63.13-1.72.13-.51.7-1.93.74-1.74.98-2.08,1.27-2.44,1.59-2.76,1.91-2.99,2.08-2.99c5.46,1.27,10.85,2.74,16.2,4.37l.3,3.63.15,3.55-.02,3.21-.11,2.74-.21,2.29-.23,1.89-.36,2-.17.51-.74,1.57-.64,1.49-.57,1.42-.47,1.36-.38,1.25-.3,1.19-.21,1.1-.13,1-.09.91v.83l.06.74.13.62.17.53.23.42.28.32.32.21.17.09,3.33,1.17,4.97,1.85,4.95,1.97,3.25,1.36.17.08.38.04.42-.04.45-.17.49-.28.51-.38.55-.49.55-.62.55-.72.57-.85.57-.96.57-1.08.57-1.19.55-1.32.55-1.42.53-1.55.49-1.66.23-.47,1.08-1.74,1.08-1.55,1.4-1.85,1.74-2.1,2.14-2.38,2.48-2.55,2.68-2.48c5.05,2.38,10.02,4.95,14.93,7.64l-.47,3.61-.59,3.52-.68,3.1-.7,2.68-.66,2.21-.64,1.78-.76,1.89-.25.47-1.06,1.38-.96,1.32-.83,1.27-.74,1.23-.64,1.15-.53,1.1-.45,1.02-.34.96-.25.89-.19.81-.09.72v.64l.06.55.13.47.19.38.28.28.15.09,3.04,1.85,4.48,2.84,4.39,2.95,2.91,2.02.15.11.36.13.42.04.49-.06.53-.17.57-.25.64-.38.66-.49.7-.59.74-.7.76-.83.79-.91.81-1.06.81-1.17.83-1.27.85-1.4.83-1.53.32-.42,1.42-1.46,1.38-1.3,1.74-1.51,2.17-1.7,2.57-1.87,2.97-1.97,3.12-1.89c4.46,3.4,8.79,6.92,13.01,10.59l-1.21,3.44-1.32,3.29-1.3,2.91-1.23,2.46-1.13,2.02-.98,1.63-1.15,1.68-.36.4-1.32,1.13-1.21,1.1-1.08,1.06-.98,1.04-.85,1.02-.76.96-.64.91-.53.85-.45.83-.34.74-.23.68-.15.64-.04.55.02.49.13.4.21.32.13.13,2.57,2.44,3.78,3.72.96.98-60.02,60.02c-26.28-27.01-63.39-43.46-104.33-42.39-74.84,1.96-135.62,63.51-136.69,138.37-1.12,78.51,62.19,142.51,140.45,142.51,71.12,0,129.89-52.84,139.17-121.4h85.37l-.17,1.97-.02.19.06.38.19.38.3.38.4.38.53.36.64.36.74.34.87.32.98.28,1.08.25,1.21.21,1.3.17,1.42.13,1.53.08,1.63.02,1.74-.04.51.06,2,.49,1.8.55,2.19.76,2.55,1.02,2.91,1.3,3.18,1.59,3.21,1.74Z"/>
      </g>
    </g>
  </g>
  <g id="Layer_2-2" data-name="Layer 2">
    <g>
      <path class="cls-1" d="M554.61,221.76l-35.16,34.95h-86.45l-34.95-34.75v-65.15l35.16-34.96h86.45l34.95,34.75v65.15ZM504.14,153.09h-56.05l-15.31,15.3v41.57l15.51,15.51h56.26l15.31-15.1v-41.78l-15.72-15.51Z"/>
      <path class="cls-1" d="M704.98,255.47v-82.73l-52.33,57.91-52.54-57.7v82.52h-32.47v-119.96l21.72-20.27,63.5,68.05,63.5-68.05,21.92,20.68v119.55h-33.3Z"/>
      <path class="cls-1" d="M864.41,123.1l18.41,18.41-22.54,22.54-12.41-12.41h-61.01v22.34h65.98v30.4h-65.98v22.54h62.46l12.2-12,22.13,22.13-18.41,18.41h-110.24V123.1h109.41Z"/>
      <path class="cls-1" d="M944.71,255.47v-101.14h-25.23l-14.48,14.27-24.2-24.2,21.3-21.3h118.93l21.3,21.3-24.4,24.2-14.27-14.27h-25.44v101.14h-33.51Z"/>
    </g>
  </g>
  <g id="Layer_3" data-name="Layer 3">
    <g>
      <path class="cls-1" d="M521.41,391.46v-111.79h93.45l23.23,23.41v29.17l-15.55,15.2,15.2,15.02v28.99h-28.65v-19.04l-11-11h-48.38v30.04h-28.3ZM549.71,336.09h48.04l11-10.83v-12.75l-7.16-6.99h-51.88v30.57Z"/>
      <path class="cls-1" d="M779.21,362.99l-29.69,29.52h-73.01l-29.52-29.34v-55.02l29.69-29.52h73.01l29.52,29.34v55.02ZM736.59,305h-47.34l-12.93,12.93v35.11l13.1,13.1h47.51l12.93-12.75v-35.28l-13.28-13.1Z"/>
      <path class="cls-1" d="M887.76,279.67l18.17,17.99v22.18l-15.55,15.37,15.55,16.24v22.19l-17.82,17.82h-96.94v-111.79h96.59ZM818.76,323.69h55.72v-20.26h-55.72v20.26ZM818.76,367.71h55.72v-20.78h-55.72v20.78Z"/>
      <path class="cls-1" d="M918.72,298.89l19.74-19.91h79.3l19.91,19.91v73.54l-19.91,19.74h-79.3l-19.74-19.74v-73.54ZM947.71,365.61h60.79v-60.09h-60.79v60.09Z"/>
      <path class="cls-1" d="M1086.39,391.46v-85.24h-40.18v-26.55h109.17v26.55h-40.35v85.24h-28.65Z"/>
      <path class="cls-1" d="M1192.13,279.67v111.79h-28.3v-111.79h28.3Z"/>
      <path class="cls-1" d="M1306.82,305.87h-59.91l-12.4,12.4v34.41l12.75,12.58h59.74v26.2h-73.01l-29.34-29.34v-53.1l29.34-29.34h72.84v26.2Z"/>
      <path class="cls-1" d="M1320.17,365.44h57.99l-65.33-55.2,22.53-30.57h75.98v26.03h-56.59l65.85,55.02-23.58,30.74h-76.85v-26.03Z"/>
    </g>
  </g>
</svg>