<?xml version="1.0" encoding="UTF-8"?><svg id="Layer_2" xmlns="http://www.w3.org/2000/svg" viewBox="0 0 590 210"><defs><style>.cls-1{fill:none;stroke-miterlimit:10;stroke-width:10px;}.cls-1,.cls-2{stroke:#fff;}.cls-2{fill:#fff;}</style></defs><g id="Layer_1-2"><rect class="cls-1" x="5" y="5" width="580" height="200" rx="25" ry="25"/><g><path class="cls-2" d="M96.06,154.6c-8.07-8.4-12.03-19.44-12.03-33.12s3.95-24.88,12.03-33.29c8.07-8.4,18.62-12.69,31.64-12.69s22.74,3.62,30.15,11.04c7.41,7.25,11.2,16.97,11.2,29,0,4.78-.33,8.57-.99,11.53h-58.99c-.16,13.35,6.92,20.93,18.62,20.93,8.57,0,15.32-4.12,17.14-10.55h24.88c-1.48,8.9-6.1,16.15-13.84,21.59-7.58,5.44-16.81,8.07-27.85,8.07-13.18,0-23.89-4.12-31.97-12.52Zm47.95-43.99c-.16-10.05-6.59-16.15-17.14-16.15s-16.97,6.43-17.47,16.15h34.6Z"/><path class="cls-2" d="M184.69,165.47V77.15h21.91l2.97,16.31h1.65c5.11-12.03,13.51-17.96,25.21-17.96,12.52,0,20.93,6.1,25.37,18.12h1.81c5.11-12.03,14.34-18.12,27.52-18.12,19.11,0,29,14.17,29,37.07v52.89h-25.21v-50.26c0-12.69-4.61-18.95-13.68-18.95-10.71,0-16.31,7.91-16.31,19.94v49.27h-25.21v-50.75c0-12.36-4.61-18.45-13.68-18.45-10.05,0-16.31,7.58-16.31,19.28v49.92h-25.05Z"/><path class="cls-2" d="M368.9,112.41h20.27v-5.11c0-8.4-5.27-12.52-13.35-12.52s-13.68,4.29-14.17,10.88h-24.55c1.48-18.62,17.14-30.15,39.54-30.15,24.55,0,37.57,12.36,37.57,32.62v34.44c0,3.79,1.48,5.6,4.28,5.6,.99,0,1.98-.16,2.8-.33v17.46c-4.28,.99-8.4,1.48-12.36,1.48-11.7,0-17.8-4.94-18.45-14.67h-1.32c-3.13,9.23-13.68,15-27.02,15-17.63,0-28.67-10.05-28.67-25.87,0-17.96,13.84-28.84,35.43-28.84Zm2.14,35.75c11.2,0,18.13-7.08,18.13-17.63v-2.97h-16.15c-9.39,0-14.17,3.46-14.17,10.55,0,6.43,4.78,10.05,12.19,10.05Z"/><path class="cls-2" d="M435.46,67.93v-24.39h25.05v24.39h-25.05Zm0,97.54V77.15h25.05v88.32h-25.05Z"/><path class="cls-2" d="M480.93,165.47V42.88h25.05v122.59h-25.05Z"/></g></g></svg>