<svg id="Layer_1" data-name="Layer 1" xmlns="http://www.w3.org/2000/svg" viewBox="0 0 582 209">
    <defs>
        <style>.cls-1{fill:#FFF;}.cls-2{fill:none;stroke:#FFF;stroke-miterlimit:10;stroke-width:10px;}</style>
    </defs>
    <path class="cls-1" d="M133.7,94.31H90.64a2,2,0,0,0-2,2v21a2,2,0,0,0,2,2h16.79v26.16s-3.77,1.29-14.2,1.29c-12.3,0-29.49-4.5-29.49-42.29s17.9-42.77,34.7-42.77c14.55,0,20.81,2.56,24.8,3.79a2,2,0,0,0,2.41-2l4.8-20.35a1.86,1.86,0,0,0-.77-1.57C128.06,40.53,118.19,35,93.23,35,64.49,35,35,47.23,35,106s33.76,67.56,62.21,67.56c23.55,0,37.84-10.07,37.84-10.07a1.73,1.73,0,0,0,.66-1.52V96.33A2,2,0,0,0,133.7,94.31ZM355.5,42.36a2,2,0,0,0-2-2H329.25a2,2,0,0,0-2,2V89.22H289.46V42.36a2,2,0,0,0-2-2H263.21a2,2,0,0,0-2,2V169.23a2,2,0,0,0,2,2h24.25a2,2,0,0,0,2-2V115h37.79l-.07,54.27a2,2,0,0,0,2,2h24.3a2,2,0,0,0,2-2Zm-176.13,17a15.64,15.64,0,1,0-15.63,15.8A15.7,15.7,0,0,0,179.37,59.32Zm-1.92,83.21V84a2,2,0,0,0-2-2H151.27a2.31,2.31,0,0,0-2.1,2.25v83.91c0,2.47,1.54,3.2,3.53,3.2h21.77c2.39,0,3-1.17,3-3.24ZM448.16,82H424.1a2,2,0,0,0-2,2v62.21a27.18,27.18,0,0,1-14.79,4.47c-8.67,0-11-3.94-11-12.43V84a2,2,0,0,0-2-2H369.92a2,2,0,0,0-2,2v58.36c0,25.23,14.06,31.4,33.41,31.4C417.19,173.74,430,165,430,165a49.91,49.91,0,0,0,.89,5.17,2.1,2.1,0,0,0,1.77,1.1l15.53-.07a2,2,0,0,0,2-2V84A2,2,0,0,0,448.16,82Zm55.44,68.76a28.93,28.93,0,0,1-14-4V106.49a32.22,32.22,0,0,1,12.44-4c8.66-.77,17,1.84,17,22.51C519,146.76,515.27,151.06,503.6,150.71Zm9.49-71.49a45.2,45.2,0,0,0-23,6.1v-43a2,2,0,0,0-2-2H463.81a2,2,0,0,0-2,2V169.23a2,2,0,0,0,2,2h16.86a2,2,0,0,0,1.76-1.08c.42-.68,1-5.85,1-5.85s9.94,9.43,28.76,9.43c22.1,0,34.77-11.21,34.77-50.32S526.76,79.22,513.09,79.22ZM247.23,81.73H229l0-24c0-.91-.46-1.36-1.52-1.36H202.71c-1,0-1.48.42-1.48,1.35V82.52s-12.42,3-13.26,3.24a2,2,0,0,0-1.45,1.93V103.3a2,2,0,0,0,2,2h12.71v37.54c0,27.88,19.56,30.62,32.75,30.62a55.41,55.41,0,0,0,14.44-2.38,1.86,1.86,0,0,0,1.13-1.82l0-17.16a2,2,0,0,0-2-2c-1.06,0-3.77.44-6.56.44-8.93,0-12-4.16-12-9.54V105.32h18.19a2,2,0,0,0,2-2V83.75A2,2,0,0,0,247.23,81.73Z" />
    <rect class="cls-2" x="5" y="5" width="572" height="199" rx="26.61" />
</svg>