<?xml version="1.0" encoding="UTF-8"?>
<svg id="Layer_2" xmlns="http://www.w3.org/2000/svg" viewBox="0 0 590 210">
    <defs>
        <style>.cls-1{fill:#fff;}.cls-2{fill:none;stroke:#fff;stroke-miterlimit:10;stroke-width:10px;}</style>
    </defs>
    <g id="Layer_1-2">
        <rect class="cls-2" x="5" y="5" width="580" height="200" rx="25" ry="25" />
        <g>
            <path class="cls-1" d="M130.79,140.62v-23.53c-4.42,0-8.73,0-13.03,0-3.47-.01-3.74-.28-3.74-3.8,0-4.94,0-9.88,0-14.82,0-3.42,.32-3.72,3.85-3.72,11.49,0,22.98,0,34.46,0,3.79,0,3.95,.16,3.95,3.84,0,18.18-.04,36.36,.06,54.53,.01,2.21-.81,3.35-2.62,4.33-7.89,4.26-16.33,6.67-25.21,7.38-10.55,.85-21.02,.29-31.14-3.15-13.89-4.72-23.05-14.35-27.17-28.2-6.15-20.65-5.89-41.48,1.24-61.86,6.15-17.58,19.28-26.84,37.62-28.8,11.94-1.28,23.82-.75,35.42,2.63,7.64,2.22,7.6,2.31,5.72,9.95-.93,3.76-1.79,7.54-2.72,11.3-.72,2.92-1.09,3.11-4.06,2.19-9.35-2.87-18.9-3.59-28.54-2.24-10.64,1.49-17.5,7.74-20.37,17.91-3.74,13.26-3.76,26.7,.27,39.9,3.51,11.5,11.24,16.9,23.31,16.85,4.21-.02,8.41-.43,12.69-.66Z" />
            <path class="cls-1" d="M327.47,113.07h-33.68v3.21c0,14.29,0,28.59,0,42.88,0,3.54-.19,3.72-3.79,3.73-6.1,0-12.19-.06-18.29,.03-2.42,.04-3.3-.95-3.3-3.3,.03-36.61,.03-73.23,0-109.84,0-2.42,1.04-3.24,3.38-3.21,6.27,.09,12.55,.1,18.82,0,2.45-.04,3.22,.96,3.21,3.32-.07,12.17-.03,24.35-.03,36.53,0,1.05,0,2.09,0,3.34h33.81c0-.89,0-1.82,0-2.75,0-12.35,.06-24.7-.05-37.05-.02-2.59,.91-3.42,3.4-3.38,6.18,.11,12.37,.02,18.55,.04,3.08,0,3.45,.44,3.45,3.87,0,30.79,0,61.58,0,92.37,0,5.56-.07,11.12,.03,16.67,.05,2.54-.98,3.44-3.47,3.4-6.18-.1-12.37-.02-18.55-.04-3.14,0-3.43-.31-3.43-3.55,.01-14.82,.04-29.64,.06-44.46,0-.52-.07-1.05-.13-1.79Z" />
            <path class="cls-1" d="M473.48,85.47c5.62-1.39,10.98-3.37,16.48-3.97,18.12-1.96,29.16,5.94,32.88,23.75,2.82,13.47,2.34,27.06-1.59,40.3-3.84,12.91-12.28,19.06-25.75,19.47-10.54,.32-17.49-1.64-27.5-7.74-.13,.08-.35,.15-.37,.26-1.24,5.79-.06,5.31-7.08,5.34-2.65,0-5.3,0-7.95,0-4.4,0-4.52-.11-4.52-4.4,0-33.45,0-66.89,0-100.34,0-2.74,.08-5.47-.02-8.21-.09-2.32,.75-3.41,3.21-3.37,6.36,.09,12.73,.09,19.09,0,2.47-.04,3.19,.98,3.18,3.34-.08,12-.04,24-.04,35.58Zm26.31,38.27c-.66-4-1.17-9.44-2.52-14.66-1.12-4.35-4.49-6.78-9.11-7.23-4.99-.48-9.62,.78-13.98,3.02-.62,.32-1.09,1.54-1.09,2.34-.07,10.57-.02,21.14-.08,31.7,0,1.55,.51,2.39,1.91,3.02,4.52,2.06,9.23,2.92,14.15,2.48,4.67-.42,7.58-2.66,8.66-7.22,.93-3.91,1.25-7.97,2.07-13.45Z" />
            <path class="cls-1" d="M418.77,157.57c-6.5,3.77-13.12,6.37-20.32,7.2-6.64,.76-13.24,.49-19.64-1.6-9.16-2.99-14.75-10.4-15.04-20.85-.37-13.31-.26-26.64-.33-39.96-.03-5.21,.05-10.41-.03-15.62-.03-2.23,.8-3.18,3.12-3.15,6.36,.09,12.73,.11,19.09,0,2.55-.05,3.42,.93,3.41,3.43-.07,14.74-.04,29.47-.03,44.21,0,1.85-.03,3.71,.12,5.56,.39,4.93,3.11,7.46,8.03,7.73,4.33,.24,8.39-.68,12.32-2.47,1.83-.83,2.55-1.86,2.54-3.98-.11-16.94-.06-33.88-.06-50.82,0-3.41,.18-3.59,3.6-3.6,6.1,0,12.2,.07,18.29-.04,2.45-.05,3.28,.94,3.27,3.28-.04,24.27-.04,48.53,0,72.8,0,2.36-.86,3.36-3.29,3.28-3.44-.12-6.9-.17-10.33,.04-2.74,.17-4.26-.63-4.24-3.56,0-.5-.26-1-.49-1.84Z" />
            <path class="cls-1" d="M239.94,83.55c5.03,0,9.78,0,14.53,0,3.21,0,3.52,.3,3.54,3.43,.02,4.76-.06,9.53,.03,14.29,.04,2.38-.94,3.35-3.31,3.31-4.76-.08-9.53-.02-14.64-.02-.05,1.04-.14,1.97-.14,2.89,0,9.17-.02,18.35,0,27.52,.01,6.2,2.59,9,8.87,9.42,2.01,.14,4.06-.05,6.07-.28,2.21-.25,3.36,.36,3.32,2.8-.09,4.5-.09,9-.03,13.5,.02,1.63-.67,2.31-2.19,2.73-8.27,2.3-16.58,2.48-24.83,.13-9.41-2.68-15.47-10.24-15.87-20.5-.45-11.45-.3-22.92-.41-34.39-.01-1.13,0-2.27,0-3.82-1.22,0-2.24,.05-3.26,0-3.05-.17-6.1-.37-9.15-.57-.22-3.11-.47-6.22-.64-9.34-.08-1.5,.07-3-.03-4.5-.14-2,.55-3.08,2.66-3.46,2.86-.52,5.64-1.43,8.49-2,1.55-.31,1.98-1.05,1.96-2.53-.06-6.17,.03-12.35-.05-18.52-.03-2.06,.7-2.81,2.78-2.78,6.36,.09,12.72,.12,19.08-.01,2.41-.05,3.29,.7,3.23,3.16-.13,5.47-.01,10.94,0,16.41,0,.95,0,1.9,0,3.13Z" />
            <path class="cls-1" d="M193.9,122.98c0,11.81,0,23.62,0,35.43,0,3.92-.51,4.43-4.39,4.44-5.65,0-11.3,.02-16.95,0-3.33-.02-4.03-.73-4.03-4.02,0-23.97,.02-47.95-.04-71.92,0-2.52,.84-3.44,3.38-3.39,6.26,.13,12.53,.12,18.8,0,2.43-.05,3.28,.86,3.27,3.24-.07,12.08-.03,24.15-.03,36.23Z" />
            <path class="cls-1" d="M181.39,77.23c-7.8,.02-13.92-6.03-13.99-13.82-.06-7.87,6.15-14.2,13.93-14.21,7.72,0,14.17,6.47,14.09,14.16-.08,7.71-6.3,13.85-14.04,13.87Z" />
        </g>
    </g>
</svg>