<svg id="Layer_1" data-name="Layer 1" xmlns="http://www.w3.org/2000/svg" viewBox="0 0 582 209"><defs><style>.cls-1{fill:#fff;}.cls-2{fill:none;stroke:#fff;stroke-miterlimit:10;stroke-width:10px;}</style></defs><path class="cls-1" d="M546.5,159h0a2.3,2.3,0,0,0,2.29-2.29v-.13c0-1.72-1-2.54-3.17-2.54H542.2v9h1.29v-3.92h1.59l0,0,2.47,3.88H549l-2.65-4Zm-1.5-.9h-1.51v-3h1.91c1,0,2.1.16,2.1,1.44,0,1.48-1.13,1.6-2.51,1.6M42.32,60.46h19.1v69.59H96.79v17.63H42.32Zm62.91,28.08h18.35v59.1H105.23Zm9.18-29.38a10.65,10.65,0,1,1-10.65,10.65,10.7,10.7,0,0,1,10.65-10.65h0m85.94,1.29H218.7v52.12l20.8-24H262l-24.09,27.36,23.58,31.79H238.43L219,118.45h-.25v29.21H200.35Zm-66.59,28.1h17.62v8.08h.25A19.3,19.3,0,0,1,169,87.08c18.61,0,22,12.24,22,28.15v32.41H172.69V118.91c0-6.86-.12-15.68-9.56-15.68s-11,7.47-11,15.18v29.22H133.77Z"/><path class="cls-1" d="M300.65,111.22V111a11.05,11.05,0,0,0-11-11h-.27a12.3,12.3,0,0,0-13,11.26Zm15.54,26.19a32.37,32.37,0,0,1-25.09,11.76c-18.36,0-33.05-12.25-33.05-31.22s14.69-31.22,33.05-31.22C308.25,86.73,319,99,319,118v5.75H276.41a13.76,13.76,0,0,0,13.83,11.51,15.72,15.72,0,0,0,13.1-7.22Zm41.07-34.58c-9.18,0-14.68,6.13-14.68,15s5.5,15.06,14.68,15.06S372,126.83,372,117.88s-5.51-15-14.69-15m31.59,44.8H372v-7.84h-.25a23.09,23.09,0,0,1-18.24,9.31c-17.64,0-29.25-12.73-29.25-30.72,0-16.53,10.28-31.71,27.17-31.71,7.6,0,14.69,2.08,18.85,7.84h.25V60.44h18.36Zm123.89,0H494.38V118.93c0-6.86-.12-15.68-9.54-15.68s-11,7.47-11,15.18v29.23H455.47V88.56h17.61v8.08h.25a19.35,19.35,0,0,1,17.38-9.55c18.6,0,22,12.24,22,28.15Zm-78-67.18h0a10.65,10.65,0,1,1,10.65-10.66h0a10.71,10.71,0,0,1-10.65,10.65m9.18,67.18H425.57V88.56h18.37ZM521.88,42.14H416.34a9.09,9.09,0,0,0-9.13,8.93v106a9.08,9.08,0,0,0,9.13,8.94H521.88a9.11,9.11,0,0,0,9.18-8.94v-106a9.09,9.09,0,0,0-9.18-8.92M545.16,150a8.44,8.44,0,1,0,.16,0h-.16m0,15.93H545a7.41,7.41,0,1,1,7.41-7.53v.12a7.28,7.28,0,0,1-7.09,7.4h-.19"/><rect class="cls-2" x="5" y="5" width="572" height="199" rx="26.59"/></svg>