<?xml version="1.0" encoding="UTF-8"?>
<svg id="Layer_2" xmlns="http://www.w3.org/2000/svg" viewBox="0 0 590 210">
    <defs>
        <style>.cls-1{fill:#fff;}.cls-2{fill:none;stroke:#fff;stroke-miterlimit:10;stroke-width:10px;}</style>
    </defs>
    <g id="Layer_1-2">
        <rect class="cls-2" x="5" y="5" width="580" height="200" rx="25" ry="25" />
        <g id="V6vTz6.tif">
            <g>
                <path class="cls-1" d="M415.59,105.12c0-18.94,.08-37.89-.05-56.83-.04-5.69,4.38-10.19,10.2-10.18,37.76,.05,75.53,.02,113.29,.03,4.61,0,8.38,2.87,9.51,7.24,.21,.8,.32,1.64,.32,2.46,.02,38.19,.02,76.38,.01,114.57,0,5.4-4.24,9.68-9.64,9.68-38.03,.01-76.06,.01-114.09,0-5.35,0-9.55-4.25-9.55-9.62,0-19.11,0-38.22,0-57.33Zm71.75-7.6c0-2.19-.04-4.5,.02-6.79,.02-.86-.21-1.14-1.11-1.14-6.04,.04-12.09,.04-18.13,0-.9,0-1.2,.22-1.2,1.17,.03,19.48,.02,38.96,.02,58.44,0,1.36,0,1.37,1.3,1.37,5.94,0,11.89-.02,17.83,.02,.99,0,1.3-.25,1.3-1.29-.04-10.64-.03-21.28-.02-31.92,0-1.3-.01-2.62,.24-3.89,1.13-5.75,6.48-10.43,13.41-8.78,3.75,.89,5.75,3.54,6.57,7.06,.53,2.28,.79,4.67,.81,7.01,.08,10.17,.05,20.35,.01,30.52,0,1.04,.31,1.3,1.3,1.29,5.94-.04,11.89-.04,17.83,0,.98,0,1.32-.24,1.32-1.29-.04-11.44-.02-22.88-.03-34.32,0-3.27-.38-6.51-1.22-9.67-1.51-5.66-4.32-10.45-9.38-13.68-4.6-2.94-9.72-3.73-15.05-3.35-4.11,.3-7.93,1.6-11.07,4.33-1.72,1.5-3.18,3.29-4.74,4.92Zm-31.27,22.49c0-9.67,0-19.34,0-29.01q0-1.39-1.44-1.39c-5.91,0-11.82,.03-17.72-.02-1.02,0-1.27,.27-1.27,1.28,.03,19.47,.03,38.94,0,58.41,0,1.02,.29,1.31,1.29,1.3,5.94-.04,11.88-.02,17.82-.02,1.32,0,1.32,0,1.32-1.34,0-9.74,0-19.47,0-29.21Zm-8.59-38.37c4.45,.2,10.68-4.22,9.78-11.98-.34-2.95-1.67-5.39-4.12-7.13-2.87-2.04-6.11-2.48-9.52-1.95-7.92,1.24-10.96,8.69-8.26,14.81,1.96,4.43,5.76,6.11,12.11,6.24Z" />
                <path class="cls-1" d="M374.94,92.81v-30.31h20.16c.31,29.32-.38,58.61,.47,87.96-.3,.01-.59,.04-.88,.04-5.31,0-10.62-.01-15.92,.02-.8,0-1.08-.19-1.13-1.03-.14-2.53-.4-5.05-.61-7.57-.02-.19-.09-.37-.17-.67-.22,.18-.39,.26-.48,.4-3.54,5.66-8.82,8.7-15.24,9.8-8.49,1.46-16.1-.59-22.53-6.42-4.91-4.45-7.79-10.11-9.11-16.52-1.81-8.79-1.41-17.46,2.34-25.72,3.92-8.62,10.45-14.3,19.81-16.35,6.08-1.33,12.07-.87,17.75,1.92,2,.98,3.71,2.36,5.05,4.17,.1,.13,.14,.3,.21,.45l.29-.16Zm.19,25.51h-.24c0-2.08,.12-4.15-.03-6.21-.31-4.25-2.33-7.53-6.05-9.65-5.24-2.99-14-2.06-17.78,6.18-1.74,3.79-2.23,7.8-2,11.9,.21,3.91,1.11,7.67,3.61,10.82,3.32,4.18,7.76,5.58,12.85,4.51,4.88-1.03,8.03-4.2,9-9.09,.54-2.75,.45-5.63,.64-8.45Z" />
                <path class="cls-1" d="M204.81,62.47h20.1v49.87l.22,.07c.28-.42,.56-.85,.85-1.26,5.53-7.81,11.07-15.61,16.62-23.4,.2-.28,.62-.55,.95-.55,7.68-.03,15.36-.02,23.04-.02,.15,0,.31,.06,.6,.13-1.01,1.12-1.94,2.16-2.88,3.19-6.57,7.24-13.13,14.49-19.73,21.71-.56,.61-.29,.95,.05,1.43,8.42,11.93,16.84,23.87,25.25,35.81,.2,.29,.4,.58,.72,1.05h-1.18c-7.55,0-15.09-.01-22.64,.02-.78,0-1.19-.27-1.57-.91-4.86-8.04-9.74-16.07-14.62-24.1-.18-.3-.39-.6-.64-.99-1.65,2.07-3.24,4.04-4.77,6.04-.21,.27-.21,.75-.21,1.13-.01,5.87,0,11.74,0,17.61v1.13h-20.15V62.47Z" />
                <path class="cls-1" d="M324.57,125.11h-41.77c.14,2.61,1.13,4.8,2.85,6.65,2.51,2.71,5.77,4.01,9.28,4.74,4.67,.97,9.37,.75,14.04,.1,3.32-.46,6.59-1.26,10.01-1.94,.28,1.38,.61,2.93,.92,4.48,.51,2.54,.97,5.1,1.53,7.63,.18,.81-.05,1.1-.78,1.36-5.39,2-10.96,3.11-16.68,3.37-3.63,.16-7.29,.27-10.9-.03-8.74-.73-16.58-3.64-22.51-10.48-3.8-4.39-5.82-9.59-6.67-15.26-1.14-7.63-.32-15.04,3.01-22.04,4.77-10.03,12.68-15.98,23.73-17.62,5-.74,9.98-.58,14.87,.8,6.65,1.87,11.73,5.8,15.12,11.79,4.68,8.27,5.23,17.18,3.92,26.45Zm-41.94-13.66h23.94c-.23-1.45-.33-2.85-.68-4.18-.96-3.66-2.91-6.56-6.66-7.89-4.72-1.67-9.92-.27-13.13,3.57-2.04,2.44-3.08,5.31-3.47,8.5Z" />
                <path class="cls-1" d="M134.94,89.88h20.07v8.39c.35-.43,.53-.62,.68-.84,4.62-6.72,11.11-9.44,19.12-8.99,5.41,.31,10.26,1.98,14.22,5.79,3.72,3.58,5.74,8.07,6.63,13.06,.47,2.64,.78,5.35,.8,8.04,.09,11.41,.04,22.81,.04,34.22,0,.26-.02,.53-.04,.87h-20.17c0-.36,0-.75,0-1.13,0-10.57,.04-21.15-.04-31.72-.02-2.07-.33-4.2-.87-6.21-.94-3.51-3.09-6.05-6.84-6.79-3.97-.78-7.47,.17-10.31,3.17-2.45,2.58-3.19,5.72-3.18,9.19,.05,10.74,.02,21.48,.02,32.22v1.27h-20.12v-60.54Z" />
                <path class="cls-1" d="M97.25,150.44H41.66V62.52h20.06v69.56h35.52v18.36Z" />
                <path class="cls-1" d="M125.51,150.44h-20.09v-60.57h20.09v60.57Z" />
                <path class="cls-1" d="M115.9,81.55c-5.63,.03-9.68-2.63-11.17-7.01-2.24-6.61,2.16-13.29,9.12-13.86,2.67-.22,5.27,0,7.68,1.29,3.81,2.04,5.88,6.33,5.23,10.81-.62,4.23-3.97,7.65-8.36,8.47-.98,.18-1.98,.24-2.5,.3Z" />
            </g>
        </g>
    </g>
</svg>