<?xml version="1.0" encoding="UTF-8"?><svg id="Layer_2" xmlns="http://www.w3.org/2000/svg" viewBox="0 0 590 210"><defs><style>.cls-1{fill:#fff;}.cls-2{fill:none;stroke:#fff;stroke-miterlimit:10;stroke-width:10px;}</style></defs><g id="Layer_1-2"><rect class="cls-2" x="5" y="5" width="580" height="200" rx="25" ry="25"/><g><path class="cls-1" d="M61.28,144.67V73.81h17.51l2.5,13.49h.79c3.56-9.92,10.93-14.81,21.86-14.81v17.58c-15.28-.13-22.65,8.59-22.65,24.33v30.28h-20.02Z"/><path class="cls-1" d="M117.24,135.94c-6.45-6.74-9.61-15.6-9.61-26.57s3.16-19.96,9.61-26.71,14.88-10.18,25.28-10.18,18.17,2.91,24.1,8.86c5.93,5.82,8.95,13.62,8.95,23.27,0,3.83-.26,6.87-.79,9.25h-47.14c-.13,10.71,5.53,16.79,14.88,16.79,6.85,0,12.25-3.31,13.7-8.46h19.88c-1.19,7.14-4.87,12.96-11.06,17.32-6.06,4.36-13.43,6.48-22.25,6.48-10.53,0-19.09-3.31-25.55-10.05Zm38.32-35.3c-.13-8.06-5.27-12.96-13.7-12.96s-13.56,5.16-13.96,12.96h27.65Z"/><path class="cls-1" d="M203.62,122.46c.13,5.95,4.48,9.25,11.72,9.25,6.72,0,10.27-2.78,10.27-7.14,0-2.51-.66-4.1-2.63-5.02-1.71-.93-2.5-1.06-4.74-1.59l-12.51-2.12c-13.83-2.51-20.67-9.25-20.67-20.49,0-14.41,11.46-22.87,29.37-22.87s29.23,8.73,29.63,22.34h-19.75c-.13-5.42-3.42-8.06-10.14-8.06-5.79,0-9.09,2.51-9.09,6.74,0,1.72,.53,3.04,1.71,4.1,2.24,1.98,3.82,2.12,7.37,2.64l12.11,1.98c13.3,2.12,19.88,8.99,19.88,20.49,0,14.68-12.11,23.27-30.95,23.27s-31.34-9.39-31.34-23.53h19.75Z"/><path class="cls-1" d="M325.29,73.81v70.87h-17.51l-2.63-12.96h-1.19c-4.34,9.52-11.98,14.28-22.91,14.28-15.41,0-23.57-10.44-23.57-27.9v-44.29h20.15v41.12c0,9.65,4.08,14.54,12.38,14.54,9.35,0,15.28-7.27,15.28-18.25v-37.42h20.02Z"/><path class="cls-1" d="M340.82,144.67V73.81h17.51l2.37,13.09h1.32c4.08-9.65,10.8-14.41,20.15-14.41,10.01,0,16.72,4.89,20.28,14.54h1.45c4.08-9.65,11.46-14.54,21.99-14.54,15.28,0,23.18,11.37,23.18,29.75v42.44h-20.15v-40.32c0-10.18-3.69-15.2-10.93-15.2-8.56,0-13.04,6.35-13.04,16v39.53h-20.15v-40.72c0-9.92-3.69-14.81-10.93-14.81-8.03,0-13.04,6.08-13.04,15.47v40.06h-20.02Z"/><path class="cls-1" d="M469.86,135.94c-6.45-6.74-9.61-15.6-9.61-26.57s3.16-19.96,9.61-26.71c6.45-6.74,14.88-10.18,25.28-10.18s18.17,2.91,24.1,8.86c5.93,5.82,8.95,13.62,8.95,23.27,0,3.83-.26,6.87-.79,9.25h-47.14c-.13,10.71,5.53,16.79,14.88,16.79,6.85,0,12.25-3.31,13.7-8.46h19.88c-1.18,7.14-4.87,12.96-11.06,17.32-6.06,4.36-13.43,6.48-22.25,6.48-10.53,0-19.09-3.31-25.55-10.05Zm38.32-35.3c-.13-8.06-5.27-12.96-13.7-12.96s-13.56,5.16-13.96,12.96h27.65Z"/></g></g></svg>